<?xml version="1.0" encoding="UTF-8"?>
<!-- ClinicalVision AI production logo: Dotted C + Vision AI (Lexend SemiBold, live text) -->
<svg xmlns="http://www.w3.org/2000/svg" width="325" height="120" viewBox="0 0 325 120" fill="none">
  <defs>
    <!-- Dotted-C gradient: subtle teal range -->
    <linearGradient id="dotGradient" x1="0%" y1="100%" x2="100%" y2="0%">
      <stop offset="0%" stop-color="#1A7A8A"/>
      <stop offset="50%" stop-color="#20A0B0"/>
      <stop offset="100%" stop-color="#0AC5D8"/>
    </linearGradient>
    <!-- Text gradient: wider, vivid sweep for visibility -->
    <linearGradient id="textGradient" x1="0%" y1="0%" x2="100%" y2="0%">
      <stop offset="0%" stop-color="#0E7490"/>
      <stop offset="35%" stop-color="#0EA5C7"/>
      <stop offset="65%" stop-color="#06B6D4"/>
      <stop offset="100%" stop-color="#22D3EE"/>
    </linearGradient>
    <!-- AI accent gradient: slightly shifted for visual distinction -->
    <linearGradient id="aiGradient" x1="0%" y1="0%" x2="100%" y2="0%">
      <stop offset="0%" stop-color="#06B6D4"/>
      <stop offset="100%" stop-color="#67E8F9"/>
    </linearGradient>
    <!-- Import Lexend font for crisp live text rendering -->
    <style>
      @import url('https://fonts.googleapis.com/css2?family=Lexend:wght@400;500;600;700&amp;display=swap');
    </style>
  </defs>
  <g transform="translate(20,10) scale(1.1)">
    <circle cx="83.2" cy="83.2" r="1.6" fill="url(#dotGradient)"/>
    <circle cx="77.8" cy="87.9" r="1.6" fill="url(#dotGradient)"/>
    <circle cx="71.8" cy="91.7" r="1.6" fill="url(#dotGradient)"/>
    <circle cx="65.2" cy="94.5" r="1.6" fill="url(#dotGradient)"/>
    <circle cx="58.3" cy="96.3" r="1.6" fill="url(#dotGradient)"/>
    <circle cx="51.2" cy="97.0" r="1.6" fill="url(#dotGradient)"/>
    <circle cx="44.1" cy="96.6" r="1.6" fill="url(#dotGradient)"/>
    <circle cx="37.1" cy="95.2" r="1.6" fill="url(#dotGradient)"/>
    <circle cx="30.4" cy="92.7" r="1.6" fill="url(#dotGradient)"/>
    <circle cx="24.1" cy="89.2" r="1.6" fill="url(#dotGradient)"/>
    <circle cx="18.5" cy="84.9" r="1.6" fill="url(#dotGradient)"/>
    <circle cx="13.6" cy="79.7" r="1.6" fill="url(#dotGradient)"/>
    <circle cx="9.5" cy="73.8" r="1.6" fill="url(#dotGradient)"/>
    <circle cx="6.4" cy="67.4" r="1.6" fill="url(#dotGradient)"/>
    <circle cx="4.2" cy="60.6" r="1.6" fill="url(#dotGradient)"/>
    <circle cx="3.1" cy="53.6" r="1.6" fill="url(#dotGradient)"/>
    <circle cx="3.1" cy="46.4" r="1.6" fill="url(#dotGradient)"/>
    <circle cx="4.2" cy="39.4" r="1.6" fill="url(#dotGradient)"/>
    <circle cx="6.4" cy="32.6" r="1.6" fill="url(#dotGradient)"/>
    <circle cx="9.5" cy="26.2" r="1.6" fill="url(#dotGradient)"/>
    <circle cx="13.6" cy="20.3" r="1.6" fill="url(#dotGradient)"/>
    <circle cx="18.5" cy="15.1" r="1.6" fill="url(#dotGradient)"/>
    <circle cx="24.1" cy="10.8" r="1.6" fill="url(#dotGradient)"/>
    <circle cx="30.4" cy="7.3" r="1.6" fill="url(#dotGradient)"/>
    <circle cx="37.1" cy="4.8" r="1.6" fill="url(#dotGradient)"/>
    <circle cx="44.1" cy="3.4" r="1.6" fill="url(#dotGradient)"/>
    <circle cx="51.2" cy="3.0" r="1.6" fill="url(#dotGradient)"/>
    <circle cx="58.3" cy="3.7" r="1.6" fill="url(#dotGradient)"/>
    <circle cx="65.2" cy="5.5" r="1.6" fill="url(#dotGradient)"/>
    <circle cx="71.8" cy="8.3" r="1.6" fill="url(#dotGradient)"/>
    <circle cx="77.8" cy="12.1" r="1.6" fill="url(#dotGradient)"/>
    <circle cx="83.2" cy="16.8" r="1.6" fill="url(#dotGradient)"/>
    <circle cx="79.7" cy="79.7" r="1.4" fill="url(#dotGradient)"/>
    <circle cx="74.1" cy="84.4" r="1.4" fill="url(#dotGradient)"/>
    <circle cx="67.7" cy="88.1" r="1.4" fill="url(#dotGradient)"/>
    <circle cx="60.9" cy="90.6" r="1.4" fill="url(#dotGradient)"/>
    <circle cx="53.7" cy="91.8" r="1.4" fill="url(#dotGradient)"/>
    <circle cx="46.3" cy="91.8" r="1.4" fill="url(#dotGradient)"/>
    <circle cx="39.1" cy="90.6" r="1.4" fill="url(#dotGradient)"/>
    <circle cx="32.3" cy="88.1" r="1.4" fill="url(#dotGradient)"/>
    <circle cx="25.9" cy="84.4" r="1.4" fill="url(#dotGradient)"/>
    <circle cx="20.3" cy="79.7" r="1.4" fill="url(#dotGradient)"/>
    <circle cx="15.6" cy="74.1" r="1.4" fill="url(#dotGradient)"/>
    <circle cx="11.9" cy="67.7" r="1.4" fill="url(#dotGradient)"/>
    <circle cx="9.4" cy="60.9" r="1.4" fill="url(#dotGradient)"/>
    <circle cx="8.2" cy="53.7" r="1.4" fill="url(#dotGradient)"/>
    <circle cx="8.2" cy="46.3" r="1.4" fill="url(#dotGradient)"/>
    <circle cx="9.4" cy="39.1" r="1.4" fill="url(#dotGradient)"/>
    <circle cx="11.9" cy="32.3" r="1.4" fill="url(#dotGradient)"/>
    <circle cx="15.6" cy="25.9" r="1.4" fill="url(#dotGradient)"/>
    <circle cx="20.3" cy="20.3" r="1.4" fill="url(#dotGradient)"/>
    <circle cx="25.9" cy="15.6" r="1.4" fill="url(#dotGradient)"/>
    <circle cx="32.3" cy="11.9" r="1.4" fill="url(#dotGradient)"/>
    <circle cx="39.1" cy="9.4" r="1.4" fill="url(#dotGradient)"/>
    <circle cx="46.3" cy="8.2" r="1.4" fill="url(#dotGradient)"/>
    <circle cx="53.7" cy="8.2" r="1.4" fill="url(#dotGradient)"/>
    <circle cx="60.9" cy="9.4" r="1.4" fill="url(#dotGradient)"/>
    <circle cx="67.7" cy="11.9" r="1.4" fill="url(#dotGradient)"/>
    <circle cx="74.1" cy="15.6" r="1.4" fill="url(#dotGradient)"/>
    <circle cx="79.7" cy="20.3" r="1.4" fill="url(#dotGradient)"/>
    <circle cx="76.2" cy="76.2" r="1.2" fill="url(#dotGradient)"/>
    <circle cx="70.3" cy="80.9" r="1.2" fill="url(#dotGradient)"/>
    <circle cx="63.6" cy="84.4" r="1.2" fill="url(#dotGradient)"/>
    <circle cx="56.3" cy="86.5" r="1.2" fill="url(#dotGradient)"/>
    <circle cx="48.7" cy="87.0" r="1.2" fill="url(#dotGradient)"/>
    <circle cx="41.2" cy="85.9" r="1.2" fill="url(#dotGradient)"/>
    <circle cx="34.1" cy="83.4" r="1.2" fill="url(#dotGradient)"/>
    <circle cx="27.6" cy="79.5" r="1.2" fill="url(#dotGradient)"/>
    <circle cx="22.1" cy="74.3" r="1.2" fill="url(#dotGradient)"/>
    <circle cx="17.7" cy="68.1" r="1.2" fill="url(#dotGradient)"/>
    <circle cx="14.7" cy="61.2" r="1.2" fill="url(#dotGradient)"/>
    <circle cx="13.2" cy="53.8" r="1.2" fill="url(#dotGradient)"/>
    <circle cx="13.2" cy="46.2" r="1.2" fill="url(#dotGradient)"/>
    <circle cx="14.7" cy="38.8" r="1.2" fill="url(#dotGradient)"/>
    <circle cx="17.7" cy="31.9" r="1.2" fill="url(#dotGradient)"/>
    <circle cx="22.1" cy="25.7" r="1.2" fill="url(#dotGradient)"/>
    <circle cx="27.6" cy="20.5" r="1.2" fill="url(#dotGradient)"/>
    <circle cx="34.1" cy="16.6" r="1.2" fill="url(#dotGradient)"/>
    <circle cx="41.2" cy="14.1" r="1.2" fill="url(#dotGradient)"/>
    <circle cx="48.7" cy="13.0" r="1.2" fill="url(#dotGradient)"/>
    <circle cx="56.3" cy="13.5" r="1.2" fill="url(#dotGradient)"/>
    <circle cx="63.6" cy="15.6" r="1.2" fill="url(#dotGradient)"/>
    <circle cx="70.3" cy="19.1" r="1.2" fill="url(#dotGradient)"/>
    <circle cx="76.2" cy="23.8" r="1.2" fill="url(#dotGradient)"/>
    <circle cx="72.6" cy="72.6" r="1" fill="url(#dotGradient)"/>
    <circle cx="66.4" cy="77.5" r="1" fill="url(#dotGradient)"/>
    <circle cx="59.1" cy="80.7" r="1" fill="url(#dotGradient)"/>
    <circle cx="51.3" cy="82.0" r="1" fill="url(#dotGradient)"/>
    <circle cx="43.4" cy="81.3" r="1" fill="url(#dotGradient)"/>
    <circle cx="35.9" cy="78.7" r="1" fill="url(#dotGradient)"/>
    <circle cx="29.3" cy="74.4" r="1" fill="url(#dotGradient)"/>
    <circle cx="24.0" cy="68.6" r="1" fill="url(#dotGradient)"/>
    <circle cx="20.2" cy="61.6" r="1" fill="url(#dotGradient)"/>
    <circle cx="18.2" cy="54.0" r="1" fill="url(#dotGradient)"/>
    <circle cx="18.2" cy="46.0" r="1" fill="url(#dotGradient)"/>
    <circle cx="20.2" cy="38.4" r="1" fill="url(#dotGradient)"/>
    <circle cx="24.0" cy="31.4" r="1" fill="url(#dotGradient)"/>
    <circle cx="29.3" cy="25.6" r="1" fill="url(#dotGradient)"/>
    <circle cx="35.9" cy="21.3" r="1" fill="url(#dotGradient)"/>
    <circle cx="43.4" cy="18.7" r="1" fill="url(#dotGradient)"/>
    <circle cx="51.3" cy="18.0" r="1" fill="url(#dotGradient)"/>
    <circle cx="59.1" cy="19.3" r="1" fill="url(#dotGradient)"/>
    <circle cx="66.4" cy="22.5" r="1" fill="url(#dotGradient)"/>
    <circle cx="72.6" cy="27.4" r="1" fill="url(#dotGradient)"/>
    <circle cx="69.1" cy="69.1" r="0.8" fill="url(#dotGradient)"/>
    <circle cx="62.3" cy="74.1" r="0.8" fill="url(#dotGradient)"/>
    <circle cx="54.2" cy="76.7" r="0.8" fill="url(#dotGradient)"/>
    <circle cx="45.8" cy="76.7" r="0.8" fill="url(#dotGradient)"/>
    <circle cx="37.7" cy="74.1" r="0.8" fill="url(#dotGradient)"/>
    <circle cx="30.9" cy="69.1" r="0.8" fill="url(#dotGradient)"/>
    <circle cx="25.9" cy="62.3" r="0.8" fill="url(#dotGradient)"/>
    <circle cx="23.3" cy="54.2" r="0.8" fill="url(#dotGradient)"/>
    <circle cx="23.3" cy="45.8" r="0.8" fill="url(#dotGradient)"/>
    <circle cx="25.9" cy="37.7" r="0.8" fill="url(#dotGradient)"/>
    <circle cx="30.9" cy="30.9" r="0.8" fill="url(#dotGradient)"/>
    <circle cx="37.7" cy="25.9" r="0.8" fill="url(#dotGradient)"/>
    <circle cx="45.8" cy="23.3" r="0.8" fill="url(#dotGradient)"/>
    <circle cx="54.2" cy="23.3" r="0.8" fill="url(#dotGradient)"/>
    <circle cx="62.3" cy="25.9" r="0.8" fill="url(#dotGradient)"/>
    <circle cx="69.1" cy="30.9" r="0.8" fill="url(#dotGradient)"/>
  </g>
  <!-- Text: Live Lexend font for crisp sub-pixel rendering at any scale -->
  <g id="VisionAI-text">
    <!-- "Vision" — Lexend SemiBold 600, prominent wordmark -->
    <text x="122" y="72" font-family="'Lexend', 'Poppins', system-ui, sans-serif" font-size="42" font-weight="600" letter-spacing="-0.5" fill="url(#textGradient)">Vision</text>
    <!-- "AI" — Lexend Medium 500, slightly lighter for visual hierarchy -->
    <text x="263" y="72" font-family="'Lexend', 'Poppins', system-ui, sans-serif" font-size="42" font-weight="500" letter-spacing="1" fill="url(#aiGradient)">AI</text>
  </g>
 </svg>
