<?xml version="1.0" encoding="UTF-8"?>
<!-- ClinicalVision AI production logo: Dotted C + Vision AI (DM Sans, vector paths) -->
<svg xmlns="http://www.w3.org/2000/svg" width="325" height="120" viewBox="0 0 325 120" fill="none">
  <defs>
    <linearGradient id="dotGradient" x1="0%" y1="100%" x2="100%" y2="0%">
      <stop offset="0%" stop-color="#1A7A8A"/>
      <stop offset="50%" stop-color="#20A0B0"/>
      <stop offset="100%" stop-color="#0AC5D8"/>
    </linearGradient>
  </defs>
  <g transform="translate(20,10) scale(1.1)">
    <circle cx="83.2" cy="83.2" r="1.6" fill="url(#dotGradient)"/>
    <circle cx="77.8" cy="87.9" r="1.6" fill="url(#dotGradient)"/>
    <circle cx="71.8" cy="91.7" r="1.6" fill="url(#dotGradient)"/>
    <circle cx="65.2" cy="94.5" r="1.6" fill="url(#dotGradient)"/>
    <circle cx="58.3" cy="96.3" r="1.6" fill="url(#dotGradient)"/>
    <circle cx="51.2" cy="97.0" r="1.6" fill="url(#dotGradient)"/>
    <circle cx="44.1" cy="96.6" r="1.6" fill="url(#dotGradient)"/>
    <circle cx="37.1" cy="95.2" r="1.6" fill="url(#dotGradient)"/>
    <circle cx="30.4" cy="92.7" r="1.6" fill="url(#dotGradient)"/>
    <circle cx="24.1" cy="89.2" r="1.6" fill="url(#dotGradient)"/>
    <circle cx="18.5" cy="84.9" r="1.6" fill="url(#dotGradient)"/>
    <circle cx="13.6" cy="79.7" r="1.6" fill="url(#dotGradient)"/>
    <circle cx="9.5" cy="73.8" r="1.6" fill="url(#dotGradient)"/>
    <circle cx="6.4" cy="67.4" r="1.6" fill="url(#dotGradient)"/>
    <circle cx="4.2" cy="60.6" r="1.6" fill="url(#dotGradient)"/>
    <circle cx="3.1" cy="53.6" r="1.6" fill="url(#dotGradient)"/>
    <circle cx="3.1" cy="46.4" r="1.6" fill="url(#dotGradient)"/>
    <circle cx="4.2" cy="39.4" r="1.6" fill="url(#dotGradient)"/>
    <circle cx="6.4" cy="32.6" r="1.6" fill="url(#dotGradient)"/>
    <circle cx="9.5" cy="26.2" r="1.6" fill="url(#dotGradient)"/>
    <circle cx="13.6" cy="20.3" r="1.6" fill="url(#dotGradient)"/>
    <circle cx="18.5" cy="15.1" r="1.6" fill="url(#dotGradient)"/>
    <circle cx="24.1" cy="10.8" r="1.6" fill="url(#dotGradient)"/>
    <circle cx="30.4" cy="7.3" r="1.6" fill="url(#dotGradient)"/>
    <circle cx="37.1" cy="4.8" r="1.6" fill="url(#dotGradient)"/>
    <circle cx="44.1" cy="3.4" r="1.6" fill="url(#dotGradient)"/>
    <circle cx="51.2" cy="3.0" r="1.6" fill="url(#dotGradient)"/>
    <circle cx="58.3" cy="3.7" r="1.6" fill="url(#dotGradient)"/>
    <circle cx="65.2" cy="5.5" r="1.6" fill="url(#dotGradient)"/>
    <circle cx="71.8" cy="8.3" r="1.6" fill="url(#dotGradient)"/>
    <circle cx="77.8" cy="12.1" r="1.6" fill="url(#dotGradient)"/>
    <circle cx="83.2" cy="16.8" r="1.6" fill="url(#dotGradient)"/>
    <circle cx="79.7" cy="79.7" r="1.4" fill="url(#dotGradient)"/>
    <circle cx="74.1" cy="84.4" r="1.4" fill="url(#dotGradient)"/>
    <circle cx="67.7" cy="88.1" r="1.4" fill="url(#dotGradient)"/>
    <circle cx="60.9" cy="90.6" r="1.4" fill="url(#dotGradient)"/>
    <circle cx="53.7" cy="91.8" r="1.4" fill="url(#dotGradient)"/>
    <circle cx="46.3" cy="91.8" r="1.4" fill="url(#dotGradient)"/>
    <circle cx="39.1" cy="90.6" r="1.4" fill="url(#dotGradient)"/>
    <circle cx="32.3" cy="88.1" r="1.4" fill="url(#dotGradient)"/>
    <circle cx="25.9" cy="84.4" r="1.4" fill="url(#dotGradient)"/>
    <circle cx="20.3" cy="79.7" r="1.4" fill="url(#dotGradient)"/>
    <circle cx="15.6" cy="74.1" r="1.4" fill="url(#dotGradient)"/>
    <circle cx="11.9" cy="67.7" r="1.4" fill="url(#dotGradient)"/>
    <circle cx="9.4" cy="60.9" r="1.4" fill="url(#dotGradient)"/>
    <circle cx="8.2" cy="53.7" r="1.4" fill="url(#dotGradient)"/>
    <circle cx="8.2" cy="46.3" r="1.4" fill="url(#dotGradient)"/>
    <circle cx="9.4" cy="39.1" r="1.4" fill="url(#dotGradient)"/>
    <circle cx="11.9" cy="32.3" r="1.4" fill="url(#dotGradient)"/>
    <circle cx="15.6" cy="25.9" r="1.4" fill="url(#dotGradient)"/>
    <circle cx="20.3" cy="20.3" r="1.4" fill="url(#dotGradient)"/>
    <circle cx="25.9" cy="15.6" r="1.4" fill="url(#dotGradient)"/>
    <circle cx="32.3" cy="11.9" r="1.4" fill="url(#dotGradient)"/>
    <circle cx="39.1" cy="9.4" r="1.4" fill="url(#dotGradient)"/>
    <circle cx="46.3" cy="8.2" r="1.4" fill="url(#dotGradient)"/>
    <circle cx="53.7" cy="8.2" r="1.4" fill="url(#dotGradient)"/>
    <circle cx="60.9" cy="9.4" r="1.4" fill="url(#dotGradient)"/>
    <circle cx="67.7" cy="11.9" r="1.4" fill="url(#dotGradient)"/>
    <circle cx="74.1" cy="15.6" r="1.4" fill="url(#dotGradient)"/>
    <circle cx="79.7" cy="20.3" r="1.4" fill="url(#dotGradient)"/>
    <circle cx="76.2" cy="76.2" r="1.2" fill="url(#dotGradient)"/>
    <circle cx="70.3" cy="80.9" r="1.2" fill="url(#dotGradient)"/>
    <circle cx="63.6" cy="84.4" r="1.2" fill="url(#dotGradient)"/>
    <circle cx="56.3" cy="86.5" r="1.2" fill="url(#dotGradient)"/>
    <circle cx="48.7" cy="87.0" r="1.2" fill="url(#dotGradient)"/>
    <circle cx="41.2" cy="85.9" r="1.2" fill="url(#dotGradient)"/>
    <circle cx="34.1" cy="83.4" r="1.2" fill="url(#dotGradient)"/>
    <circle cx="27.6" cy="79.5" r="1.2" fill="url(#dotGradient)"/>
    <circle cx="22.1" cy="74.3" r="1.2" fill="url(#dotGradient)"/>
    <circle cx="17.7" cy="68.1" r="1.2" fill="url(#dotGradient)"/>
    <circle cx="14.7" cy="61.2" r="1.2" fill="url(#dotGradient)"/>
    <circle cx="13.2" cy="53.8" r="1.2" fill="url(#dotGradient)"/>
    <circle cx="13.2" cy="46.2" r="1.2" fill="url(#dotGradient)"/>
    <circle cx="14.7" cy="38.8" r="1.2" fill="url(#dotGradient)"/>
    <circle cx="17.7" cy="31.9" r="1.2" fill="url(#dotGradient)"/>
    <circle cx="22.1" cy="25.7" r="1.2" fill="url(#dotGradient)"/>
    <circle cx="27.6" cy="20.5" r="1.2" fill="url(#dotGradient)"/>
    <circle cx="34.1" cy="16.6" r="1.2" fill="url(#dotGradient)"/>
    <circle cx="41.2" cy="14.1" r="1.2" fill="url(#dotGradient)"/>
    <circle cx="48.7" cy="13.0" r="1.2" fill="url(#dotGradient)"/>
    <circle cx="56.3" cy="13.5" r="1.2" fill="url(#dotGradient)"/>
    <circle cx="63.6" cy="15.6" r="1.2" fill="url(#dotGradient)"/>
    <circle cx="70.3" cy="19.1" r="1.2" fill="url(#dotGradient)"/>
    <circle cx="76.2" cy="23.8" r="1.2" fill="url(#dotGradient)"/>
    <circle cx="72.6" cy="72.6" r="1" fill="url(#dotGradient)"/>
    <circle cx="66.4" cy="77.5" r="1" fill="url(#dotGradient)"/>
    <circle cx="59.1" cy="80.7" r="1" fill="url(#dotGradient)"/>
    <circle cx="51.3" cy="82.0" r="1" fill="url(#dotGradient)"/>
    <circle cx="43.4" cy="81.3" r="1" fill="url(#dotGradient)"/>
    <circle cx="35.9" cy="78.7" r="1" fill="url(#dotGradient)"/>
    <circle cx="29.3" cy="74.4" r="1" fill="url(#dotGradient)"/>
    <circle cx="24.0" cy="68.6" r="1" fill="url(#dotGradient)"/>
    <circle cx="20.2" cy="61.6" r="1" fill="url(#dotGradient)"/>
    <circle cx="18.2" cy="54.0" r="1" fill="url(#dotGradient)"/>
    <circle cx="18.2" cy="46.0" r="1" fill="url(#dotGradient)"/>
    <circle cx="20.2" cy="38.4" r="1" fill="url(#dotGradient)"/>
    <circle cx="24.0" cy="31.4" r="1" fill="url(#dotGradient)"/>
    <circle cx="29.3" cy="25.6" r="1" fill="url(#dotGradient)"/>
    <circle cx="35.9" cy="21.3" r="1" fill="url(#dotGradient)"/>
    <circle cx="43.4" cy="18.7" r="1" fill="url(#dotGradient)"/>
    <circle cx="51.3" cy="18.0" r="1" fill="url(#dotGradient)"/>
    <circle cx="59.1" cy="19.3" r="1" fill="url(#dotGradient)"/>
    <circle cx="66.4" cy="22.5" r="1" fill="url(#dotGradient)"/>
    <circle cx="72.6" cy="27.4" r="1" fill="url(#dotGradient)"/>
    <circle cx="69.1" cy="69.1" r="0.8" fill="url(#dotGradient)"/>
    <circle cx="62.3" cy="74.1" r="0.8" fill="url(#dotGradient)"/>
    <circle cx="54.2" cy="76.7" r="0.8" fill="url(#dotGradient)"/>
    <circle cx="45.8" cy="76.7" r="0.8" fill="url(#dotGradient)"/>
    <circle cx="37.7" cy="74.1" r="0.8" fill="url(#dotGradient)"/>
    <circle cx="30.9" cy="69.1" r="0.8" fill="url(#dotGradient)"/>
    <circle cx="25.9" cy="62.3" r="0.8" fill="url(#dotGradient)"/>
    <circle cx="23.3" cy="54.2" r="0.8" fill="url(#dotGradient)"/>
    <circle cx="23.3" cy="45.8" r="0.8" fill="url(#dotGradient)"/>
    <circle cx="25.9" cy="37.7" r="0.8" fill="url(#dotGradient)"/>
    <circle cx="30.9" cy="30.9" r="0.8" fill="url(#dotGradient)"/>
    <circle cx="37.7" cy="25.9" r="0.8" fill="url(#dotGradient)"/>
    <circle cx="45.8" cy="23.3" r="0.8" fill="url(#dotGradient)"/>
    <circle cx="54.2" cy="23.3" r="0.8" fill="url(#dotGradient)"/>
    <circle cx="62.3" cy="25.9" r="0.8" fill="url(#dotGradient)"/>
    <circle cx="69.1" cy="30.9" r="0.8" fill="url(#dotGradient)"/>
  </g>
  <g transform="translate(120,33) scale(1.40)">
    <!-- Vision AI in DM Sans, true vector path from user-supplied SVG, aligned for visual lockup -->
    <g id="VisionAI-dmsans">
      <path d="M10.296 36L0.828 10.8H4.104L12.06 32.796L20.088 10.8H23.292L13.824 36H10.296ZM26.9612 36V17.064H29.9852V36H26.9612ZM28.4732 13.464C27.8732 13.464 27.3692 13.272 26.9612 12.888C26.5772 12.48 26.3852 11.976 26.3852 11.376C26.3852 10.776 26.5772 10.296 26.9612 9.936C27.3692 9.552 27.8732 9.36 28.4732 9.36C29.0492 9.36 29.5412 9.552 29.9492 9.936C30.3572 10.296 30.5612 10.776 30.5612 11.376C30.5612 11.976 30.3572 12.48 29.9492 12.888C29.5412 13.272 29.0492 13.464 28.4732 13.464ZM42.1968 36.432C40.4928 36.432 39.0768 36.18 37.9488 35.676C36.8448 35.148 36.0048 34.428 35.4288 33.516C34.8528 32.58 34.5048 31.5 34.3848 30.276H37.4808C37.5768 30.924 37.7928 31.524 38.1288 32.076C38.4888 32.604 39.0048 33.036 39.6768 33.372C40.3488 33.708 41.2008 33.876 42.2328 33.876C43.0488 33.876 43.7448 33.756 44.3208 33.516C44.8968 33.252 45.3288 32.892 45.6168 32.436C45.9288 31.98 46.0848 31.452 46.0848 30.852C46.0848 30.06 45.9048 29.448 45.5448 29.016C45.2088 28.56 44.7048 28.224 44.0328 28.008C43.3848 27.768 42.5688 27.588 41.5848 27.468C40.5288 27.324 39.5928 27.12 38.7768 26.856C37.9608 26.592 37.2648 26.244 36.6888 25.812C36.1368 25.38 35.7168 24.84 35.4288 24.192C35.1408 23.544 34.9968 22.776 34.9968 21.888C34.9968 20.856 35.2728 19.944 35.8248 19.152C36.3768 18.36 37.1568 17.748 38.1648 17.316C39.1968 16.86 40.4088 16.632 41.8008 16.632C43.8408 16.632 45.4488 17.1 46.6248 18.036C47.8248 18.972 48.5328 20.304 48.7488 22.032H45.7608C45.6408 21.144 45.2328 20.448 44.5368 19.944C43.8408 19.44 42.9168 19.188 41.7648 19.188C40.5408 19.188 39.6168 19.416 38.9928 19.872C38.3688 20.328 38.0568 20.928 38.0568 21.672C38.0568 22.224 38.1888 22.728 38.4528 23.184C38.7408 23.616 39.2208 23.988 39.8928 24.3C40.5648 24.588 41.4648 24.804 42.5928 24.948C44.0088 25.116 45.2088 25.392 46.1928 25.776C47.1768 26.136 47.9208 26.7 48.4248 27.468C48.9528 28.236 49.2048 29.28 49.1808 30.6C49.1808 31.848 48.8808 32.904 48.2808 33.768C47.7048 34.632 46.8888 35.292 45.8328 35.748C44.8008 36.204 43.5888 36.432 42.1968 36.432ZM53.9612 36V17.064H56.9852V36H53.9612ZM55.4732 13.464C54.8732 13.464 54.3692 13.272 53.9612 12.888C53.5772 12.48 53.3852 11.976 53.3852 11.376C53.3852 10.776 53.5772 10.296 53.9612 9.936C54.3692 9.552 54.8732 9.36 55.4732 9.36C56.0492 9.36 56.5412 9.552 56.9492 9.936C57.3572 10.296 57.5612 10.776 57.5612 11.376C57.5612 11.976 57.3572 12.48 56.9492 12.888C56.5412 13.272 56.0492 13.464 55.4732 13.464ZM70.4928 36.432C68.7408 36.432 67.1928 36.024 65.8488 35.208C64.5048 34.392 63.4608 33.24 62.7168 31.752C61.9728 30.264 61.6008 28.524 61.6008 26.532C61.6008 24.516 61.9728 22.776 62.7168 21.312C63.4848 19.824 64.5408 18.672 65.8848 17.856C67.2528 17.04 68.8128 16.632 70.5648 16.632C72.3408 16.632 73.8888 17.04 75.2088 17.856C76.5528 18.672 77.5968 19.824 78.3408 21.312C79.0848 22.776 79.4568 24.516 79.4568 26.532C79.4568 28.524 79.0728 30.264 78.3048 31.752C77.5608 33.24 76.5168 34.392 75.1728 35.208C73.8288 36.024 72.2688 36.432 70.4928 36.432ZM70.4928 33.84C71.5968 33.84 72.5928 33.576 73.4808 33.048C74.3688 32.496 75.0648 31.68 75.5688 30.6C76.0968 29.496 76.3608 28.14 76.3608 26.532C76.3608 24.9 76.1088 23.544 75.6048 22.464C75.1008 21.384 74.4048 20.58 73.5168 20.052C72.6528 19.5 71.6688 19.224 70.5648 19.224C69.4848 19.224 68.5008 19.5 67.6128 20.052C66.7248 20.58 66.0168 21.384 65.4888 22.464C64.9608 23.544 64.6968 24.9 64.6968 26.532C64.6968 28.14 64.9488 29.496 65.4528 30.6C65.9808 31.68 66.6768 32.496 67.5408 33.048C68.4288 33.576 69.4128 33.84 70.4928 33.84ZM83.8373 36V17.064H86.5732L86.7173 20.052C87.2693 18.972 88.0613 18.132 89.0933 17.532C90.1493 16.932 91.3613 16.632 92.7293 16.632C94.1213 16.632 95.3333 16.896 96.3653 17.424C97.3973 17.952 98.2013 18.756 98.7773 19.836C99.3533 20.916 99.6413 22.284 99.6413 23.94V36H96.6173V24.264C96.6173 22.584 96.1973 21.324 95.3573 20.484C94.5413 19.644 93.4373 19.224 92.0453 19.224C91.1093 19.224 90.2453 19.452 89.4533 19.908C88.6613 20.34 88.0253 20.988 87.5453 21.852C87.0893 22.716 86.8613 23.772 86.8613 25.02V36H83.8373ZM112.878 36L122.166 10.8H125.37L134.622 36H131.382L123.75 14.58L116.046 36H112.878ZM117.126 29.52L117.99 27.072H129.402L130.266 29.52H117.126ZM138.475 36V10.8H141.499V36H138.475Z" fill="url(#dotGradient)"/>
    </g>
  </g>
 </svg>
